<svg id="cptv" xmlns="http://www.w3.org/2000/svg" width="73.625" height="43.801" viewBox="0 0 73.625 43.801">
  <path id="Path_1317" data-name="Path 1317" d="M49.09,61.471h1.27c.645,0,1.087.128,1.289.457a.884.884,0,0,1,.258.7,2.842,2.842,0,0,1-.129.641,2.891,2.891,0,0,1-.957,1.464,3.287,3.287,0,0,1-1.731.494h-.9l.9-3.753ZM69.281,58.1l-.055,17.553h4.012L82.129,58.1H77.657L72.742,69.616,73.7,58.1H69.281Zm-11.633,0-.9,3.569h3.461L56.692,75.656h4.086l3.516-13.984h3.589l.884-3.569H57.649Zm-11.817,0L41.488,75.656h4.086l1.73-6.937h1.4a7.177,7.177,0,0,0,3.773-.951,6.893,6.893,0,0,0,2.43-2.16,8.911,8.911,0,0,0,1.086-2.544,7.022,7.022,0,0,0,.184-1.593,3.272,3.272,0,0,0-.626-2.087A4.362,4.362,0,0,0,52.09,58.1ZM40.4,75.2l1.086-3.935a5.129,5.129,0,0,1-2.5.951,1.879,1.879,0,0,1-1.841-1.464,4.565,4.565,0,0,1-.2-1.446,10.758,10.758,0,0,1,.313-2.233,9.767,9.767,0,0,1,1.859-4.137,3.5,3.5,0,0,1,2.632-1.464,2.158,2.158,0,0,1,1.841.97l1.086-3.953a5.785,5.785,0,0,0-2.558-.7,7.193,7.193,0,0,0-3.957,1.281,10.46,10.46,0,0,0-3.129,3.368,17.133,17.133,0,0,0-1.859,4.5,13.038,13.038,0,0,0-.442,3.313,8.142,8.142,0,0,0,.571,3.112,4.021,4.021,0,0,0,4.086,2.544A8,8,0,0,0,40.4,75.2ZM20.45,52.9a2.847,2.847,0,0,1-.957,2.215,3.078,3.078,0,0,1-2.227.952,2.89,2.89,0,0,1-2.245-.952,2.848,2.848,0,0,1-.957-2.215,3.165,3.165,0,0,1,3.2-3.185A3.165,3.165,0,0,1,20.45,52.9ZM9.075,74.887q10.74-21.635,37.144-30.878a3.109,3.109,0,0,1,1.012-.2c.7,0,1.086.384,1.086,1.153,0,1.135-.883,3.167-2.613,6.1C33.739,51.111,24.536,56.4,18.02,66.944a15.324,15.324,0,0,0-.7,4.192c0,5.089,3.7,8.2,11.062,9.353a17.208,17.208,0,0,1-3.847,6.535,35.5,35.5,0,0,1-5.927.585c-6.718,0-10.105-2.745-10.105-8.2a20.08,20.08,0,0,1,.571-4.521Z" transform="translate(-8.504 -43.808)" fill-rule="evenodd"/>
</svg>
