<svg xmlns="http://www.w3.org/2000/svg" width="42" height="42" viewBox="0 0 42 42">
  <g id="Group_31792" data-name="Group 31792" transform="translate(-140 -2961)">
    <rect id="Rectangle_6514" data-name="Rectangle 6514" width="42" height="42" rx="10" transform="translate(140 2961)" fill="#27ae61"/>
    <g id="Layer_2" data-name="Layer 2" transform="translate(149 2970)">
      <g id="layers">
        <rect id="Rectangle_6516" data-name="Rectangle 6516" width="24" height="24" transform="translate(24 24) rotate(180)" fill="#fff" opacity="0"/>
        <path id="Path_239728" data-name="Path 239728" d="M21,11.35a1,1,0,0,0-.61-.86l-2.15-.92,2.26-1.3a.993.993,0,0,0-.11-1.78l-8-3.41a1,1,0,0,0-.78,0l-8,3.41A.993.993,0,0,0,3.5,8.27l2.26,1.3-2.15.92a.993.993,0,0,0-.11,1.78l2.26,1.3-2.15.92a.993.993,0,0,0-.11,1.78l8,4.6a1,1,0,0,0,1,0l8-4.6a.993.993,0,0,0-.11-1.78l-2.15-.92,2.26-1.3A1,1,0,0,0,21,11.35ZM12,5.09l5.76,2.45L12,10.85,6.24,7.54Zm-.5,7.78a1,1,0,0,0,1,0l3.57-2,1.69.72L12,14.85,6.24,11.54l1.69-.72Zm6.26,2.67L12,18.85,6.24,15.54l1.69-.72,3.57,2.05a1,1,0,0,0,1,0l3.57-2.05Z" fill="#fff"/>
      </g>
    </g>
  </g>
</svg>
