<svg xmlns="http://www.w3.org/2000/svg" width="50" height="50" viewBox="0 0 50 50">
  <g id="Layer_2" data-name="Layer 2" transform="translate(0 0.486)">
    <g id="pin">
      <rect id="Rectangle_6569" data-name="Rectangle 6569" width="50" height="50" transform="translate(0 -0.486)" opacity="0"/>
      <path id="Path_239876" data-name="Path 239876" d="M20.5,2A16.5,16.5,0,0,0,4,18.34c0,11.3,14.545,23.89,15.164,24.426a2.063,2.063,0,0,0,2.682,0c.722-.536,15.164-13.121,15.164-24.427A16.5,16.5,0,0,0,20.5,2Zm0,36.413C17.059,35.133,8.126,26.035,8.126,18.34a12.378,12.378,0,1,1,24.757,0C32.883,25.973,23.95,35.133,20.5,38.413Z" transform="translate(4.252 2.126)"/>
      <path id="Path_239877" data-name="Path 239877" d="M15.721,6a7.221,7.221,0,1,0,7.221,7.221A7.221,7.221,0,0,0,15.721,6Zm0,10.315a3.095,3.095,0,1,1,3.095-3.095A3.095,3.095,0,0,1,15.721,16.315Z" transform="translate(9.036 6.378)"/>
    </g>
  </g>
</svg>
