<svg id="Livello_2" data-name="Livello 2" xmlns="http://www.w3.org/2000/svg" width="380" height="93.871" viewBox="0 0 380 93.871">
  <g id="Livello_1" data-name="Livello 1" transform="translate(0)">
    <path id="Path_239715" data-name="Path 239715" d="M50.7,19.991C44.089,13.4,37.8,7.09,35.926,0c-1.841,7.09-8.18,13.4-14.793,19.991C11.231,29.893,0,41.107,0,57.945a35.922,35.922,0,1,0,71.843,0C71.835,41.107,60.6,29.893,50.7,19.991ZM18.474,61.217a24.081,24.081,0,0,0-2.812,4.465.92.92,0,0,1-.614.511h-.307c-.8,0-1.7-1.568-1.7-1.568h0c-.239-.375-.46-.767-.682-1.176l-.153-.324c-2.079-4.755-.273-11.521-.273-11.521h0a29.688,29.688,0,0,1,4.295-9.22,53.736,53.736,0,0,1,3.886-5.113l1.7,1.7,8.044,8.215a.92.92,0,0,1,0,1.227l-8.4,9.322h0ZM36.335,84.753a12.424,12.424,0,0,1-9.2-20.69c2.625-3.119,5.829-6.186,9.305-10.226,4.124,4.4,6.817,7.414,9.459,10.72a5.249,5.249,0,0,1,.545.818A12.185,12.185,0,0,1,48.657,72.4,12.322,12.322,0,0,1,36.335,84.753ZM59.649,65h0a1.432,1.432,0,0,1-1.142.988h-.239a2.079,2.079,0,0,1-1.159-.937h0A64.37,64.37,0,0,0,49.816,56l-3.289-3.409L35.6,41.26a92.031,92.031,0,0,1-6.544-6.715,2.215,2.215,0,0,0-.17-.256,6.544,6.544,0,0,1-.869-1.7c0-.1,0-.222,0-.324a5.794,5.794,0,0,1,1.7-5.113c2.113-2.113,4.244-4.244,6.255-6.459,2.216,2.454,4.584,4.806,6.919,7.141h0A98.165,98.165,0,0,1,55.764,42.453a27.268,27.268,0,0,1,4.993,15.492A24.8,24.8,0,0,1,59.649,65Z" transform="translate(0)" fill="#009cde"/>
    <path id="Path_239716" data-name="Path 239716" d="M153.132,21H141.423V42.917c0,6.408-2.761,11.606-9.169,11.606s-9.2-5.2-9.2-11.606V21H111.36V42.917c0,12.68,8.146,22.956,20.826,22.956s20.945-10.226,20.945-22.956Z" transform="translate(78.427 14.79)" fill="#009cde"/>
    <rect id="Rectangle_6512" data-name="Rectangle 6512" width="11.674" height="57.161" transform="translate(337.376 22.377)" fill="#009cde"/>
    <path id="Path_239717" data-name="Path 239717" d="M209.87,15.205V13.16h9.084v2.045H215.63v9.05h-2.437v-9.05Z" transform="translate(147.804 9.268)" fill="#009cde"/>
    <path id="Path_239718" data-name="Path 239718" d="M219.393,13.16l2.59,7.635h.034l2.454-7.635h3.443V24.272H225.63V16.4H225.6l-2.727,7.874h-1.875l-2.727-7.806h-.034v7.806H215.95V13.16Z" transform="translate(152.086 9.268)" fill="#009cde"/>
    <path id="Path_239719" data-name="Path 239719" d="M117.9,20.846c-10.072-2.335-16.412,7.669-16.685,8.215-.119.256-.136.409-.579.392s-.409-.392-.409-.392l-1.244-7.7H88.52v43.7h11.725V41.433c0-1.943,5.113-11.2,15.338-8.811a15.952,15.952,0,0,1,7.26,3.409V22.686a19.292,19.292,0,0,0-4.874-1.841" transform="translate(62.342 14.433)" fill="#009cde"/>
    <path id="Path_239720" data-name="Path 239720" d="M161.444,31.91a11.747,11.747,0,1,1-.017,0M150.059,79.442V63.728h0v-5.88a.466.466,0,0,1,.443-.477c.443-.017.46.256.562.477a13.89,13.89,0,0,0,16.617,7.993A23.11,23.11,0,1,0,138.3,43.6v35.79Z" transform="translate(97.4 14.429)" fill="#009cde"/>
    <path id="Path_239721" data-name="Path 239721" d="M202.852,43.6A11.708,11.708,0,1,1,191.161,31.91,11.708,11.708,0,0,1,202.852,43.6m-.324,21.474h11.742V43.6a23.11,23.11,0,1,0-29.382,22.241,13.907,13.907,0,0,0,16.634-7.993c.085-.222.17-.477.545-.477s.443.477.443.477" transform="translate(118.351 14.429)" fill="#009cde"/>
    <path id="Path_239722" data-name="Path 239722" d="M75.671,23.012H70.951V60.284l4.84.119c9.936,0,16.327-.9,16.327-18.747,0-17.043-5.641-18.645-16.446-18.645M72.536,70.186H59.14V13.11H73.456c17.332,0,30.472,3.187,30.472,28.546S90,70.186,72.536,70.186" transform="translate(41.65 9.233)" fill="#009cde"/>
  </g>
</svg>
